<?xml version="1.0" standalone="no"?><!DOCTYPE svg PUBLIC "-//W3C//DTD SVG 1.1//EN" "http://www.w3.org/Graphics/SVG/1.1/DTD/svg11.dtd"><svg t="1757228319915" class="icon" viewBox="0 0 1024 1024" version="1.1" xmlns="http://www.w3.org/2000/svg" p-id="3208" xmlns:xlink="http://www.w3.org/1999/xlink" width="200" height="200"><path d="M873.248 370.944l10.528-24.128a185.92 185.92 0 0 1 94.688-96.032l32.416-14.4c17.536-7.808 17.536-33.312 0-41.088l-30.592-13.6a186.24 186.24 0 0 1-96.032-99.264l-10.816-26.08a21.6 21.6 0 0 0-40.16 0l-10.816 26.08a186.24 186.24 0 0 1-96.032 99.264l-30.592 13.6c-17.536 7.808-17.536 33.312 0 41.088l32.416 14.4a186.272 186.272 0 0 1 94.688 96.032l10.528 24.128a21.6 21.6 0 0 0 39.84 0zM85.344 170.656C85.344 147.104 104.448 128 128 128h469.344v85.344H170.688v597.344h682.656V469.344h85.344v384c0 23.552-19.104 42.656-42.656 42.656h-768a42.656 42.656 0 0 1-42.656-42.656V170.688z m213.312 170.688h426.656v128h-85.344v-42.656h-85.344v170.656h64v85.344h-213.344v-85.344h64v-170.656h-85.344v42.656H298.592v-128z" p-id="3209"></path></svg>