<?xml version="1.0" standalone="no"?><!DOCTYPE svg PUBLIC "-//W3C//DTD SVG 1.1//EN" "http://www.w3.org/Graphics/SVG/1.1/DTD/svg11.dtd"><svg t="1756054708521" class="icon" viewBox="0 0 1024 1024" version="1.1" xmlns="http://www.w3.org/2000/svg" p-id="5851" xmlns:xlink="http://www.w3.org/1999/xlink" width="200" height="200"><path d="M819.2 179.2a25.6 25.6 0 0 1 25.6 25.6v256a25.6 25.6 0 0 1-25.6 25.6h-25.6a25.6 25.6 0 0 1-25.6-25.6v-204.8h-204.8a25.6 25.6 0 0 1-25.6-25.6V204.8a25.6 25.6 0 0 1 25.6-25.6h256zM204.8 844.8a25.6 25.6 0 0 1-25.6-25.6V563.2a25.6 25.6 0 0 1 25.6-25.6h25.6a25.6 25.6 0 0 1 25.6 25.6v204.8h204.8a25.6 25.6 0 0 1 25.6 25.6v25.6a25.6 25.6 0 0 1-25.6 25.6H204.8z" p-id="5852"></path></svg>