<?xml version="1.0" standalone="no"?><!DOCTYPE svg PUBLIC "-//W3C//DTD SVG 1.1//EN" "http://www.w3.org/Graphics/SVG/1.1/DTD/svg11.dtd"><svg t="1756050941740" class="icon" viewBox="0 0 1024 1024" version="1.1" xmlns="http://www.w3.org/2000/svg" p-id="8401" xmlns:xlink="http://www.w3.org/1999/xlink" width="200" height="200"><path d="M42.666667 128h938.666666v768H42.666667V128z m85.333333 85.333333v597.333334h768V213.333333H128z m85.162667 106.666667H298.666667v85.504H213.162667V320z m170.666666 0H469.333333v85.504H383.829333V320z m170.666667 0H640v85.504h-85.504V320z m170.666667 0H810.666667v85.504h-85.504V320z m-512 128H298.666667v85.504H213.162667V448z m170.666666 0H469.333333v85.504H383.829333V448z m170.666667 0H640v85.504h-85.504V448z m170.666667 0H810.666667v85.504h-85.504V448zM213.333333 640h597.333334v85.333333H213.333333v-85.333333z" fill="#000000" p-id="8402"></path></svg>