<svg width="24" height="24" viewBox="0 0 24 24" fill="none" xmlns="http://www.w3.org/2000/svg">
  <path d="M12.22 2H11.78C11.2496 2 10.7409 2.21071 10.3658 2.58579C9.99072 2.96086 9.78 3.46957 9.78 4V4.18C9.77964 4.53073 9.68706 4.87519 9.51154 5.17884C9.33602 5.48248 9.08374 5.73464 8.78 5.91L8.35 6.16C8.04626 6.33552 7.70180 6.4281 7.35107 6.4281C7.00035 6.4281 6.65588 6.33552 6.35215 6.16L6.2 6.08C5.74107 5.81526 5.19584 5.74344 4.684 5.88031C4.17215 6.01717 3.73056 6.35154 3.445 6.81L3.225 7.19C2.95026 7.64893 2.87844 8.19416 3.01531 8.706C3.15218 9.21785 3.48654 9.65944 3.945 9.945L4.125 10.055C4.42874 10.2305 4.68102 10.4827 4.85654 10.7863C5.03206 11.09 5.12464 11.4345 5.125 11.785V12.215C5.12464 12.5655 5.03206 12.91 4.85654 13.2137C4.68102 13.5173 4.42874 13.7695 4.125 13.945L3.945 14.055C3.48654 14.3406 3.15218 14.7822 3.01531 15.294C2.87844 15.8058 2.95026 16.3511 3.225 16.81L3.445 17.19C3.73056 17.6485 4.17215 17.9828 4.684 18.1197C5.19584 18.2566 5.74107 18.1847 6.2 17.92L6.35215 17.84C6.65588 17.6645 7.00035 17.5719 7.35107 17.5719C7.70180 17.5719 8.04626 17.6645 8.35 17.84L8.78 18.09C9.08374 18.2654 9.33602 18.5175 9.51154 18.8212C9.68706 19.1248 9.77964 19.4693 9.78 19.82V20C9.78 20.5304 9.99072 21.0391 10.3658 21.4142C10.7409 21.7893 11.2496 22 11.78 22H12.22C12.7504 22 13.2591 21.7893 13.6342 21.4142C14.0093 21.0391 14.22 20.5304 14.22 20V19.82C14.2204 19.4693 14.3129 19.1248 14.4885 18.8212C14.664 18.5175 14.9163 18.2654 15.22 18.09L15.65 17.84C15.9537 17.6645 16.2982 17.5719 16.6489 17.5719C16.9997 17.5719 17.3441 17.6645 17.6479 17.84L17.8 17.92C18.2589 18.1847 18.8042 18.2566 19.316 18.1197C19.8279 17.9828 20.2694 17.6485 20.555 17.19L20.775 16.81C21.0497 16.3511 21.1216 15.8058 20.9847 15.294C20.8478 14.7822 20.5135 14.3406 20.055 14.055L19.875 13.945C19.5713 13.7695 19.319 13.5173 19.1435 13.2137C18.9679 12.91 18.8754 12.5655 18.875 12.215V11.785C18.8754 11.4345 18.9679 11.09 19.1435 10.7863C19.319 10.4827 19.5713 10.2305 19.875 10.055L20.055 9.945C20.5135 9.65944 20.8478 9.21785 20.9847 8.706C21.1216 8.19416 21.0497 7.64893 20.775 7.19L20.555 6.81C20.2694 6.35154 19.8279 6.01717 19.316 5.88031C18.8042 5.74344 18.2589 5.81526 17.8 6.08L17.6479 6.16C17.3441 6.33552 16.9997 6.4281 16.6489 6.4281C16.2982 6.4281 15.9537 6.33552 15.65 6.16L15.22 5.91C14.9163 5.73464 14.664 5.48248 14.4885 5.17884C14.3129 4.87519 14.2204 4.53073 14.22 4.18V4C14.22 3.46957 14.0093 2.96086 13.6342 2.58579C13.2591 2.21071 12.7504 2 12.22 2Z" stroke="#333333" stroke-width="2" stroke-linecap="round" stroke-linejoin="round"/>
  <circle cx="12" cy="12" r="3" stroke="#333333" stroke-width="2"/>
</svg>
