<?xml version="1.0" standalone="no"?><!DOCTYPE svg PUBLIC "-//W3C//DTD SVG 1.1//EN" "http://www.w3.org/Graphics/SVG/1.1/DTD/svg11.dtd"><svg t="1756306086498" class="icon" viewBox="0 0 1024 1024" version="1.1" xmlns="http://www.w3.org/2000/svg" p-id="4391" xmlns:xlink="http://www.w3.org/1999/xlink" width="200" height="200"><path d="M849.92 981.312H175.616A132.736 132.736 0 0 1 42.688 848.64V175.424c0-73.408 59.456-132.736 132.928-132.736H849.92a132.48 132.48 0 0 1 131.392 132.736v673.152a132.48 132.48 0 0 1-131.392 132.736zM175.616 136.384a38.72 38.72 0 0 0-39.04 39.04v673.152c0 21.888 17.152 39.04 39.04 39.04H849.92a38.72 38.72 0 0 0 39.104-39.04V175.424c-1.536-21.888-18.752-39.04-39.104-39.04H175.616z" fill="#172B4D" p-id="4392"></path><path d="M374.336 957.888a46.08 46.08 0 0 1-46.912-46.848V111.36a46.08 46.08 0 0 1 46.912-46.848 46.08 46.08 0 0 1 46.912 46.848v799.68a46.08 46.08 0 0 1-46.912 46.848z" fill="#172B4D" p-id="4393"></path></svg>