<?xml version="1.0" standalone="no"?><!DOCTYPE svg PUBLIC "-//W3C//DTD SVG 1.1//EN" "http://www.w3.org/Graphics/SVG/1.1/DTD/svg11.dtd"><svg t="1757161369630" class="icon" viewBox="0 0 1024 1024" version="1.1" xmlns="http://www.w3.org/2000/svg" p-id="11595" xmlns:xlink="http://www.w3.org/1999/xlink" width="200" height="200"><path d="M818.773333 386.261333l-90.538666 90.517334a64 64 0 0 1-90.517334 0l-90.496-90.496a64 64 0 0 1 0-90.517334l90.517334-90.538666a213.44 213.44 0 0 0-222.741334 303.189333l13.013334 27.242667L200.256 763.392l60.352 60.352L488.32 595.989333l27.221333 13.013334A213.44 213.44 0 0 0 818.773333 386.261333z m-12.458666-108.245333c21.824-21.824 59.093333-15.637333 72.32 12.842667 51.114667 110.378667 31.232 245.653333-59.882667 336.768-84.288 84.288-206.336 107.626667-311.530667 70.186666l-201.365333 201.344a64 64 0 0 1-90.496 0l-90.517333-90.496a64 64 0 0 1 0-90.517333l201.344-201.344c-37.44-105.216-14.101333-227.264 70.186666-311.552C487.466667 114.133333 622.762667 94.250667 733.141333 145.386667c28.48 13.184 34.666667 50.474667 12.842667 72.32l-123.349333 123.306666 60.352 60.352 123.306666-123.328z" p-id="11596"></path></svg>